<svg width="350" height="350" viewBox="0 0 350 350" fill="none" xmlns="http://www.w3.org/2000/svg">
<rect width="350" height="350" fill="white"/>
<path d="M136.943 66.1958C137.008 66.1967 137.072 66.181 137.13 66.1501C137.187 66.1192 137.236 66.0742 137.271 66.0192L159.194 33.6233V33.5751C159.194 33.5751 159.194 33.5751 159.194 33.527C159.214 33.4589 159.214 33.3864 159.194 33.3183L158.233 28.3176L157.159 22.6989L156.27 18.0273C156.251 17.9622 156.218 17.902 156.174 17.8507H156.134L130.02 0.0714991C129.977 0.0412971 129.928 0.0200127 129.877 0.00890038C129.826 -0.00221189 129.773 -0.00292646 129.721 0.00679988C129.67 0.0165262 129.621 0.0364971 129.577 0.0655313C129.533 0.0945655 129.496 0.132075 129.467 0.175848L101.422 41.6741C101.364 41.7639 101.343 41.8729 101.364 41.978C101.385 42.083 101.446 42.1757 101.534 42.236L136.727 66.1316C136.792 66.1718 136.866 66.194 136.943 66.1958ZM150.34 27.1537L155.725 19.127L158.289 32.4915L150.34 27.1537ZM149.451 27.0333C149.421 27.077 149.399 27.1262 149.388 27.1782C149.377 27.2301 149.376 27.2838 149.386 27.3361C149.395 27.3884 149.415 27.4382 149.444 27.4827C149.473 27.5272 149.511 27.5654 149.555 27.5952L155.332 31.5123L145.717 45.7357L117.127 26.2949L131.021 5.75444L153.497 21.0053L149.451 27.0333ZM129.932 0.962468L155.38 18.236L153.946 20.3551L131.142 4.86347C131.052 4.80496 130.943 4.78395 130.838 4.80496C130.733 4.82597 130.641 4.88732 130.581 4.97584L116.238 26.1745C116.177 26.2637 116.154 26.3733 116.174 26.4795C116.197 26.5828 116.256 26.6742 116.342 26.7363L145.589 46.5945C145.679 46.651 145.787 46.6709 145.891 46.65C145.996 46.6291 146.088 46.569 146.15 46.4821L155.997 31.9698L158.305 33.5751L136.831 65.3129L102.303 41.7945L129.932 0.962468Z" fill="#263238"/>
<path d="M127.952 20.5959L129.675 29.5618C129.692 29.6531 129.741 29.7355 129.813 29.7943C129.885 29.853 129.975 29.8844 130.068 29.8828H130.14C130.244 29.8633 130.336 29.8034 130.396 29.7162C130.456 29.629 130.479 29.5216 130.46 29.4173L128.818 20.8287L137.384 19.1752C137.435 19.1665 137.485 19.1475 137.53 19.1192C137.574 19.0909 137.612 19.0539 137.642 19.0105C137.672 18.967 137.693 18.918 137.704 18.8663C137.714 18.8146 137.714 18.7613 137.704 18.7096C137.685 18.6055 137.625 18.5133 137.538 18.4532C137.451 18.393 137.343 18.3698 137.239 18.3885L128.273 20.1143C128.22 20.1238 128.169 20.144 128.124 20.1737C128.079 20.2033 128.04 20.2417 128.01 20.2867C127.98 20.3317 127.96 20.3823 127.95 20.4354C127.94 20.4885 127.941 20.5431 127.952 20.5959Z" fill="#263238"/>
<path d="M137.872 34.4581C137.768 34.4776 137.676 34.5375 137.616 34.6247C137.556 34.7119 137.533 34.8194 137.552 34.9236C137.57 35.0151 137.619 35.0975 137.69 35.1574C137.762 35.2172 137.851 35.2509 137.944 35.2527H138.024L146.991 33.527C147.042 33.5184 147.092 33.4994 147.136 33.471C147.18 33.4425 147.218 33.4054 147.247 33.3618C147.277 33.3182 147.297 33.269 147.306 33.2174C147.316 33.1657 147.315 33.1127 147.303 33.0614L145.588 24.0715C145.568 23.965 145.507 23.871 145.417 23.81C145.328 23.749 145.218 23.7262 145.112 23.7464C145.005 23.7666 144.912 23.8283 144.851 23.9178C144.79 24.0074 144.767 24.1175 144.787 24.224L146.446 32.7725L137.872 34.4581Z" fill="#263238"/>
<path d="M132.423 31.5925C132.462 31.6326 132.508 31.6647 132.559 31.6867C132.61 31.7088 132.664 31.7204 132.72 31.721C132.821 31.7217 132.918 31.6845 132.992 31.6166L142.84 22.6186C142.878 22.5826 142.909 22.5391 142.93 22.4908C142.951 22.4425 142.962 22.3904 142.962 22.3377C142.962 22.2851 142.951 22.233 142.93 22.1846C142.909 22.1363 142.878 22.0928 142.84 22.0568C142.804 22.0194 142.76 21.9897 142.712 21.9694C142.664 21.9492 142.612 21.9387 142.56 21.9387C142.507 21.9387 142.456 21.9492 142.408 21.9694C142.359 21.9897 142.316 22.0194 142.279 22.0568L132.423 31.0226C132.386 31.06 132.356 31.1043 132.336 31.1532C132.315 31.2022 132.305 31.2546 132.305 31.3076C132.305 31.3606 132.315 31.413 132.336 31.4619C132.356 31.5108 132.386 31.5552 132.423 31.5925Z" fill="#263238"/>
<path d="M53.1768 141.415C53.1934 141.349 53.1934 141.28 53.1768 141.214L50.6688 136.791L47.8643 131.831L45.5246 127.705C45.4885 127.643 45.4357 127.593 45.3723 127.56H45.3242L14.8355 119.092C14.7379 119.052 14.6285 119.052 14.531 119.092C14.4396 119.146 14.3711 119.232 14.3387 119.333L1.01337 167.694C0.986342 167.796 1.00063 167.905 1.05314 167.997C1.10565 168.088 1.19213 168.156 1.29382 168.184L42.2794 179.525H42.3835C42.4712 179.525 42.5564 179.496 42.6259 179.442C42.6954 179.388 42.7453 179.313 42.7681 179.229L53.1848 141.503C53.1881 141.484 53.1881 141.465 53.1848 141.447L53.1768 141.415ZM47.2713 146.375L44.1143 141.599C44.0619 141.52 43.9832 141.462 43.8923 141.436C43.8014 141.409 43.704 141.416 43.6175 141.455L29.9957 147.82L23.5294 138.372C23.4777 138.297 23.4018 138.242 23.3144 138.215C23.2269 138.189 23.1332 138.194 23.0486 138.228L12.4877 142.562L17.5518 124.165L43.7297 131.389L41.8066 138.356C41.7793 138.46 41.7934 138.569 41.8458 138.662C41.8982 138.755 41.9848 138.824 42.0871 138.854L48.8178 140.716L47.2713 146.375ZM12.2313 143.542L23.0726 139.103L29.539 148.558C29.5915 148.637 29.6706 148.694 29.7619 148.72C29.8532 148.745 29.9505 148.736 30.0358 148.695L43.6576 142.338L47.0069 147.41L44.2826 157.291L10.9813 148.077L12.2313 143.542ZM42.68 138.212L45.2361 128.933L51.9348 140.772L42.68 138.212ZM42.079 178.651L1.89478 167.517L15.0037 119.967L44.6511 128.17L43.9781 130.635L17.4156 123.282C17.3127 123.257 17.204 123.272 17.1117 123.324C17.0194 123.376 16.9504 123.462 16.9188 123.563L10.1159 148.253C10.0889 148.355 10.1032 148.464 10.1557 148.556C10.2082 148.648 10.2947 148.715 10.3964 148.743L44.4508 158.166H44.563C44.6301 158.167 44.6963 158.15 44.7553 158.118C44.8157 158.068 44.8602 158.001 44.8835 157.926L49.555 140.981L52.2473 141.728L42.079 178.651Z" fill="#263238"/>
<path d="M28.4733 129.607C27.4397 129.325 26.3367 129.464 25.4044 129.992C24.478 130.511 23.795 131.377 23.5054 132.4C23.3598 132.913 23.3175 133.449 23.3809 133.978C23.4443 134.507 23.6121 135.018 23.8746 135.481C24.1372 135.944 24.4891 136.35 24.91 136.676C25.3308 137.001 25.8121 137.24 26.3259 137.377C26.6775 137.479 27.0417 137.53 27.4076 137.53C28.2917 137.533 29.1523 137.244 29.8552 136.707C30.5582 136.17 31.064 135.415 31.2938 134.56C31.4406 134.047 31.4839 133.51 31.4211 132.98C31.3583 132.45 31.1907 131.938 30.9281 131.474C30.6655 131.01 30.3131 130.603 29.8916 130.277C29.4701 129.951 28.988 129.712 28.4733 129.575V129.607ZM30.5246 134.375C30.2962 135.208 29.7466 135.917 28.9967 136.344C28.2469 136.772 27.3582 136.883 26.5262 136.655C25.6942 136.426 24.9871 135.875 24.5603 135.124C24.1335 134.373 24.0221 133.483 24.2506 132.649C24.4288 131.958 24.8321 131.346 25.3966 130.909C25.9611 130.473 26.6547 130.238 27.3676 130.241C27.8659 130.244 28.3571 130.361 28.8031 130.583C29.2491 130.806 29.6382 131.128 29.9401 131.525C30.2421 131.923 30.449 132.384 30.5448 132.874C30.6405 133.364 30.6227 133.869 30.4926 134.351L30.5246 134.375Z" fill="#263238"/>
<path d="M308.489 74.3751L291.662 39.0574C291.619 38.9994 291.561 38.9548 291.494 38.929L276.814 33.6554C276.746 33.6354 276.674 33.6354 276.606 33.6554H276.558H276.51L248.032 47.2768C247.985 47.2991 247.943 47.3306 247.908 47.3695C247.873 47.4083 247.847 47.4537 247.829 47.503C247.812 47.5523 247.805 47.6046 247.808 47.6567C247.811 47.7088 247.825 47.7598 247.848 47.8066L269.395 93.0614C269.416 93.1087 269.447 93.1511 269.485 93.1857C269.524 93.2203 269.57 93.2463 269.619 93.262C269.664 93.2697 269.71 93.2697 269.755 93.262C269.81 93.2779 269.868 93.2779 269.923 93.262L308.297 74.929C308.347 74.9067 308.392 74.8743 308.429 74.8339C308.466 74.7934 308.495 74.7458 308.513 74.6939C308.531 74.6419 308.538 74.5868 308.534 74.532C308.53 74.4772 308.515 74.4238 308.489 74.3751ZM281.59 43.416L277.455 34.739L290.276 39.2742L281.59 43.416ZM281.037 44.1303C281.072 44.1985 281.124 44.2557 281.189 44.2954C281.255 44.3351 281.329 44.3558 281.406 44.3551C281.464 44.3532 281.521 44.3395 281.574 44.3149L287.872 41.3049L295.252 56.8527L264.09 71.7022L253.417 49.3156L277.936 37.5885L281.037 44.1303ZM269.939 92.355L248.746 47.8226L276.486 34.5705L277.592 36.8742L252.752 48.7618C252.658 48.8093 252.584 48.8891 252.544 48.9865C252.504 49.0871 252.504 49.199 252.544 49.2996L263.553 72.4166C263.585 72.4854 263.636 72.5434 263.7 72.5833C263.764 72.6233 263.838 72.6435 263.914 72.6413C263.969 72.6524 264.026 72.6524 264.082 72.6413L295.973 57.3905C296.021 57.3681 296.064 57.3364 296.1 57.2971C296.136 57.2579 296.163 57.2119 296.181 57.1619C296.199 57.1119 296.207 57.0588 296.204 57.0057C296.202 56.9526 296.188 56.9006 296.165 56.8527L288.593 40.9598L291.117 39.7558L307.592 74.3591L269.939 92.355Z" fill="#263238"/>
<path d="M268.641 61.9176C269.083 61.9113 269.518 61.8071 269.915 61.6126C272.592 60.3363 272.904 57.4226 273.121 54.2681H273.185L275.404 53.2086C276.262 56.1383 277.047 58.8273 277.263 59.5336C277.576 60.553 278.185 60.5209 278.433 60.4567C279.234 60.248 280.036 58.6828 279.899 57.8882C279.876 57.7849 279.814 57.6946 279.726 57.6362C279.638 57.5779 279.531 57.556 279.427 57.5751C279.375 57.5857 279.326 57.6063 279.282 57.6358C279.239 57.6653 279.201 57.7031 279.172 57.7471C279.143 57.791 279.123 57.8403 279.113 57.8921C279.103 57.9438 279.104 57.997 279.114 58.0487C279.091 58.5597 278.893 59.0471 278.553 59.4293C278.369 59.638 278.249 59.6781 278.233 59.6781C278.217 59.6781 278.129 59.6219 278.032 59.3009C277.816 58.5704 277.015 55.8413 276.141 52.8795L278.545 51.7397C278.596 51.7195 278.643 51.689 278.682 51.6501C278.721 51.6111 278.751 51.5646 278.771 51.5133C278.792 51.462 278.801 51.4071 278.799 51.352C278.797 51.2969 278.784 51.2428 278.76 51.1931C278.737 51.1434 278.703 51.0991 278.661 51.0629C278.62 51.0268 278.571 50.9997 278.519 50.9832C278.466 50.9667 278.411 50.9612 278.356 50.9671C278.301 50.9729 278.248 50.99 278.201 51.0173L275.901 52.0367L273.449 43.6246C273.442 43.5719 273.424 43.5212 273.397 43.4753C273.37 43.4295 273.334 43.3894 273.292 43.3573C273.25 43.3253 273.201 43.3019 273.15 43.2885C273.098 43.2752 273.045 43.2721 272.992 43.2795C272.94 43.2869 272.889 43.3046 272.843 43.3315C272.797 43.3585 272.757 43.3943 272.725 43.4368C272.693 43.4793 272.67 43.5276 272.657 43.5792C272.643 43.6307 272.64 43.6843 272.648 43.737V44.2186C272.648 45.4949 272.648 48.8982 272.423 52.3497C272.423 52.7912 272.367 53.2246 272.343 53.6581C272.151 57.0534 271.999 59.7343 269.595 60.8821C269.242 61.0857 268.829 61.1587 268.427 61.0883C268.026 61.0178 267.662 60.8085 267.399 60.4969C267.043 59.9886 266.865 59.3761 266.894 58.7557C266.923 58.1353 267.157 57.5421 267.56 57.0694C269.274 54.6614 270.829 55.6808 270.901 55.729C270.989 55.7886 271.097 55.8106 271.202 55.7903C271.306 55.77 271.398 55.709 271.458 55.6206C271.517 55.5323 271.539 55.4239 271.519 55.3192C271.499 55.2146 271.438 55.1224 271.35 55.0627C271.35 55.0627 269.106 53.5698 266.911 56.5959C266.401 57.212 266.111 57.9812 266.088 58.7811C266.065 59.581 266.309 60.3658 266.782 61.0106C267.005 61.2908 267.288 61.5176 267.61 61.6745C267.931 61.8315 268.284 61.9145 268.641 61.9176ZM273.449 46.5143C273.922 48.1196 274.563 50.3029 275.18 52.4139L273.177 53.3691C273.177 53.048 273.177 52.727 273.233 52.4059C273.369 50.2547 273.449 48.1276 273.449 46.5143Z" fill="#263238"/>
<path d="M278.481 54.236C278.496 54.6171 278.606 54.9884 278.801 55.3163C278.995 55.6443 279.268 55.9185 279.595 56.1142C279.878 56.2764 280.198 56.3622 280.524 56.3631C280.779 56.3664 281.031 56.3115 281.262 56.2025C281.784 55.9899 282.246 55.6516 282.606 55.2176C282.967 54.7836 283.215 54.2673 283.329 53.7142C283.435 54.0913 283.653 54.4272 283.954 54.6775C284.028 54.7149 284.111 54.7344 284.194 54.7344C284.278 54.7344 284.36 54.7149 284.435 54.6775C284.786 54.4992 285.082 54.2274 285.29 53.8919C285.498 53.5563 285.609 53.17 285.612 52.7751C285.606 52.6708 285.561 52.5727 285.485 52.5011C285.409 52.4295 285.308 52.3897 285.204 52.3898C285.099 52.3919 284.999 52.4351 284.926 52.5102C284.852 52.5852 284.811 52.6861 284.811 52.7912C284.805 52.9994 284.753 53.2036 284.657 53.3884C284.561 53.5733 284.425 53.7341 284.258 53.8587C283.759 52.5619 283.394 51.217 283.169 49.8454C283.169 49.6447 283.096 49.436 283.056 49.2193C283.056 49.1128 283.014 49.0107 282.939 48.9355C282.864 48.8602 282.762 48.8179 282.656 48.8179C282.549 48.8179 282.448 48.8602 282.372 48.9355C282.297 49.0107 282.255 49.1128 282.255 49.2193C282.177 49.1946 282.093 49.1946 282.015 49.2193C280.91 49.4677 279.936 50.1187 279.283 51.0457C278.63 51.9727 278.344 53.1097 278.481 54.236ZM282.191 49.9336C282.253 49.9202 282.31 49.8928 282.359 49.8534C282.369 49.9236 282.382 49.9933 282.399 50.0621C282.976 53.4173 282.608 54.6694 280.917 55.4801C280.769 55.543 280.609 55.57 280.449 55.5588C280.288 55.5476 280.133 55.4987 279.996 55.4159C279.781 55.282 279.602 55.0967 279.476 54.8768C279.351 54.6569 279.281 54.4091 279.274 54.1557C279.129 53.2118 279.35 52.2479 279.893 51.4625C280.435 50.6771 281.258 50.1299 282.191 49.9336Z" fill="#263238"/>
<path d="M171.005 267.86V267.82V267.771C170.967 267.714 170.914 267.667 170.853 267.635L166.246 265.484L161.085 263.076L156.791 261.077C156.722 261.058 156.65 261.058 156.582 261.077H156.462L126.815 271.897C126.765 271.915 126.719 271.942 126.681 271.978C126.642 272.014 126.611 272.058 126.59 272.106C126.569 272.154 126.557 272.206 126.557 272.258C126.557 272.311 126.569 272.363 126.59 272.411L143.73 319.512C143.767 319.613 143.842 319.696 143.938 319.745C143.994 319.756 144.051 319.756 144.106 319.745C144.151 319.753 144.197 319.753 144.243 319.745L184.186 305.16C184.286 305.124 184.368 305.049 184.413 304.953C184.458 304.857 184.463 304.746 184.427 304.646L171.005 267.86ZM160.589 271.247L157.263 262.209L169.579 267.956L160.589 271.247ZM163.145 271.167C163.117 271.263 163.066 271.352 162.998 271.426C162.93 271.5 162.846 271.557 162.752 271.592C162.673 271.628 162.587 271.646 162.5 271.646C162.413 271.646 162.327 271.628 162.247 271.592C162.247 271.592 162.207 271.592 162.183 271.544L163.145 271.167ZM159.94 271.897C159.968 271.975 160.019 272.042 160.086 272.089C160.154 272.137 160.234 272.162 160.316 272.162C160.364 272.17 160.413 272.17 160.46 272.162L161.318 271.849C161.46 272.054 161.653 272.217 161.879 272.323C162.065 272.408 162.267 272.455 162.472 272.459C163.025 275.22 163.329 281.585 155.661 285.029H155.613L155.452 284.579C155.415 284.48 155.34 284.4 155.244 284.355C155.147 284.315 155.037 284.315 154.94 284.355L153.185 284.997C153.135 285.014 153.089 285.041 153.049 285.076C153.01 285.111 152.978 285.154 152.955 285.202C152.933 285.25 152.92 285.302 152.918 285.355C152.917 285.408 152.925 285.461 152.944 285.511L153.105 285.96H153.065C144.972 288.272 141.118 283.199 139.771 280.727C139.927 280.594 140.052 280.43 140.14 280.245C140.3 279.891 140.317 279.488 140.188 279.121C140.097 278.868 139.938 278.645 139.73 278.476C139.521 278.307 139.269 278.199 139.003 278.163C138.737 278.127 138.466 278.165 138.22 278.273C137.974 278.381 137.763 278.555 137.608 278.775C137.454 278.995 137.363 279.253 137.345 279.522C137.328 279.79 137.384 280.058 137.508 280.297C137.632 280.536 137.819 280.736 138.048 280.875C138.278 281.014 138.541 281.088 138.81 281.088H139.05C139.803 282.457 140.787 283.684 141.959 284.716C143.961 286.449 146.525 287.391 149.17 287.365H149.251L143.738 289.379L143.577 288.93C143.56 288.88 143.532 288.835 143.497 288.796C143.461 288.757 143.417 288.726 143.369 288.705C143.321 288.683 143.269 288.672 143.217 288.672C143.164 288.672 143.112 288.683 143.065 288.705L141.31 289.347C141.26 289.364 141.214 289.391 141.174 289.427C141.135 289.462 141.103 289.505 141.08 289.553C141.058 289.601 141.045 289.653 141.044 289.706C141.042 289.759 141.05 289.812 141.069 289.861L141.71 291.619C141.738 291.696 141.79 291.764 141.857 291.811C141.924 291.858 142.005 291.884 142.087 291.884H142.223L143.978 291.242C144.075 291.201 144.155 291.127 144.202 291.033C144.243 290.935 144.243 290.826 144.202 290.728L144.002 290.174L153.273 286.787H153.337L153.537 287.341C153.552 287.391 153.578 287.437 153.612 287.476C153.647 287.514 153.69 287.545 153.738 287.565C153.793 287.591 153.853 287.605 153.914 287.606H154.05L155.805 286.963C155.905 286.927 155.986 286.853 156.031 286.756C156.076 286.66 156.081 286.55 156.045 286.45L155.845 285.904H155.909L165.22 282.404L165.42 282.958C165.448 283.036 165.5 283.103 165.567 283.15C165.634 283.197 165.715 283.223 165.797 283.223H165.941L167.688 282.581C167.738 282.564 167.784 282.537 167.824 282.501C167.863 282.466 167.895 282.423 167.917 282.375C167.94 282.327 167.952 282.275 167.954 282.222C167.956 282.169 167.947 282.117 167.928 282.067L167.295 280.309C167.258 280.209 167.182 280.127 167.084 280.082C166.987 280.037 166.876 280.032 166.775 280.068L165.02 280.711C164.921 280.748 164.842 280.823 164.798 280.92C164.755 281.016 164.751 281.125 164.787 281.224L164.948 281.674L159.435 283.688C163.978 279.916 163.69 274.755 163.225 272.299C163.461 272.162 163.654 271.962 163.781 271.72C163.909 271.479 163.966 271.206 163.946 270.934L167.015 269.81L172.888 285.952L140.436 297.735L131.951 274.458L157.464 265.139L159.94 271.897ZM155.196 286.225L154.194 286.594L153.834 285.591L154.835 285.222L155.196 286.225ZM138.193 279.844C138.162 279.762 138.148 279.675 138.151 279.588C138.155 279.501 138.175 279.415 138.211 279.336C138.248 279.257 138.3 279.186 138.364 279.127C138.428 279.068 138.504 279.022 138.585 278.993C138.658 278.968 138.733 278.954 138.81 278.953C138.947 278.953 139.08 278.995 139.192 279.074C139.304 279.153 139.389 279.265 139.435 279.394C139.499 279.557 139.499 279.737 139.435 279.9C139.399 279.979 139.347 280.05 139.282 280.108C139.217 280.166 139.141 280.21 139.058 280.237C138.976 280.271 138.887 280.288 138.798 280.287C138.709 280.286 138.621 280.266 138.54 280.229C138.459 280.192 138.386 280.139 138.326 280.073C138.267 280.006 138.221 279.928 138.193 279.844ZM143.361 290.551L142.359 290.921L141.991 289.917L142.993 289.548L143.361 290.551ZM165.677 281.264L166.678 280.903L167.039 281.907L166.037 282.268L165.677 281.264ZM144.307 318.846L127.44 272.499L156.326 261.952L157.199 264.36L131.31 273.816C131.21 273.852 131.129 273.926 131.083 274.023C131.038 274.119 131.033 274.229 131.069 274.329L139.827 298.41C139.844 298.46 139.871 298.506 139.907 298.545C139.943 298.584 139.987 298.614 140.036 298.634C140.088 298.661 140.146 298.675 140.204 298.674C140.249 298.682 140.295 298.682 140.34 298.674L173.537 286.554C173.636 286.516 173.716 286.441 173.761 286.346C173.806 286.25 173.812 286.14 173.778 286.04L167.768 269.521L170.388 268.558L183.497 304.582L144.307 318.846Z" fill="#263238"/>
<path d="M334.547 73.7089L311.91 266.76C311.846 267.311 311.674 267.844 311.403 268.328C311.133 268.812 310.771 269.238 310.336 269.581C309.901 269.925 309.404 270.18 308.871 270.33C308.338 270.481 307.781 270.525 307.231 270.46L160.036 253.155L183.649 51.6835L330.845 68.9972C331.398 69.0608 331.932 69.2335 332.418 69.5052C332.904 69.7769 333.331 70.1424 333.676 70.5804C334.02 71.0185 334.274 71.5204 334.423 72.0574C334.573 72.5943 334.615 73.1556 334.547 73.7089Z" fill="#5856D6"/>
<mask id="mask0_18_4664" style="mask-type:luminance" maskUnits="userSpaceOnUse" x="160" y="51" width="175" height="220">
<path d="M334.547 73.7089L311.91 266.76C311.846 267.311 311.674 267.844 311.403 268.328C311.133 268.812 310.771 269.238 310.336 269.581C309.901 269.925 309.404 270.18 308.871 270.33C308.338 270.481 307.781 270.525 307.231 270.46L160.036 253.155L183.649 51.6835L330.845 68.9972C331.398 69.0608 331.932 69.2335 332.418 69.5052C332.904 69.7769 333.331 70.1424 333.676 70.5804C334.02 71.0185 334.274 71.5204 334.423 72.0574C334.573 72.5943 334.615 73.1556 334.547 73.7089Z" fill="white"/>
</mask>
<g mask="url(#mask0_18_4664)">
<path opacity="0.4" d="M334.547 73.7089L311.91 266.76C311.846 267.311 311.674 267.844 311.403 268.328C311.133 268.812 310.771 269.238 310.336 269.581C309.901 269.925 309.404 270.18 308.871 270.33C308.338 270.481 307.781 270.525 307.231 270.46L160.036 253.155L183.649 51.6835L330.845 68.9972C331.398 69.0608 331.932 69.2335 332.418 69.5052C332.904 69.7769 333.331 70.1424 333.676 70.5804C334.02 71.0185 334.274 71.5204 334.423 72.0574C334.573 72.5943 334.615 73.1556 334.547 73.7089Z" fill="black" fill-opacity="0.7"/>
</g>
<path d="M334.547 73.7089L311.91 266.76C311.846 267.311 311.674 267.844 311.403 268.328C311.133 268.812 310.771 269.238 310.336 269.581C309.901 269.925 309.404 270.18 308.871 270.33C308.338 270.481 307.781 270.525 307.231 270.46L160.036 253.155L183.649 51.6835L330.845 68.9972C331.398 69.0608 331.932 69.2335 332.418 69.5052C332.904 69.7769 333.331 70.1424 333.676 70.5804C334.02 71.0185 334.274 71.5204 334.423 72.0574C334.573 72.5943 334.615 73.1556 334.547 73.7089Z" stroke="#263238" stroke-miterlimit="10"/>
<path opacity="0.1" d="M251.438 234.244C251.474 236.066 250.791 237.829 249.537 239.149C248.282 240.469 246.558 241.239 244.739 241.291L161.149 243.699L183.657 51.6674L247.92 59.2286L251.438 234.244Z" fill="black" fill-opacity="0.7"/>
<path opacity="0.2" d="M62.8242 204.473C62.8242 204.473 67.712 196.735 74.3066 193.171C74.3066 193.171 93.0886 207.041 99.7953 236.515C99.7953 236.515 105.276 249.904 105.893 259.793C106.51 269.682 94.3466 290.8 90.9732 299.461C87.5998 308.122 76.2777 301.404 58.4733 330.099L71.8867 283.078L64.6111 241.026L62.8242 204.473Z" fill="black" fill-opacity="0.7"/>
<path d="M61.4941 342.934C66.3499 326.969 73.93 302.656 76.2217 298.787C79.6591 292.911 81.9588 294.019 86.0374 290.278C90.1159 286.538 94.0502 266.391 91.462 258.043C90.9332 256.325 90.3883 254.784 89.8595 253.404C89.4108 252.28 88.97 251.244 88.5373 250.305C88.3771 249.96 88.2248 249.623 88.0646 249.294C86.6463 246.356 85.3723 244.317 84.563 242.584C83.1287 239.477 83.4172 230.72 79.3627 218.391C75.3082 206.062 73.1287 195.17 64.2986 198.324C60.6928 199.616 58.9941 201.743 58.6896 210.878C58.3851 220.012 58.1127 229.556 59.8435 232.43C60.3883 233.337 60.9012 234.212 61.3579 234.998L61.7746 235.745C62.2874 236.612 62.664 237.294 62.8563 237.639C62.8857 237.686 62.9125 237.734 62.9364 237.784C62.9595 237.816 62.9784 237.851 62.9925 237.888L62.8643 237.808L62.4316 237.535C62.2874 237.43 62.1031 237.318 61.9108 237.174C61.7185 237.029 61.2617 236.708 60.8771 236.371C60.6848 236.218 60.4765 236.058 60.2601 235.873L59.9316 235.6C59.6992 235.416 59.4669 235.215 59.2265 234.99L58.4252 234.276L57.4557 233.345C56.6544 232.542 55.8531 231.739 55.0518 230.728C54.8996 230.559 54.7393 230.375 54.5871 230.182L53.8339 229.275L53.1608 228.408C52.8323 227.999 52.5117 227.557 52.1992 227.108C52.031 226.883 51.8627 226.658 51.7105 226.426C51.3819 225.96 51.0534 225.479 50.7329 224.981C50.4124 224.483 50.0758 223.97 49.7473 223.432C49.5791 223.175 49.4188 222.902 49.2585 222.629C48.938 222.083 48.6175 221.513 48.297 220.935L47.8162 220.044L47.2553 218.977L46.8707 218.174C46.7105 217.853 46.5582 217.532 46.406 217.203C46.2537 216.874 46.1656 216.689 46.0454 216.4C45.9252 216.111 45.7409 215.726 45.5887 215.381C45.4364 215.036 45.2842 214.675 45.14 214.313C44.9957 213.952 44.8435 213.599 44.6912 213.23C43.7707 210.893 42.9684 208.512 42.2874 206.094C42.1993 205.805 42.1111 205.508 42.031 205.211C41.8707 204.633 41.7105 204.063 41.5662 203.469C41.4541 203.028 41.3339 202.578 41.2297 202.121C40.6848 199.825 40.196 197.409 39.7874 194.849C39.7874 194.849 32.3595 202.37 32.3595 211.945C32.3595 227.301 30.4445 244.959 30.6368 255.972C30.6608 262.016 32.2634 279.033 32.2634 279.996C32.2669 280.004 32.2688 280.012 32.2688 280.02C32.2688 280.029 32.2669 280.037 32.2634 280.044C30.875 282.542 29.6673 285.136 28.6496 287.806C27.6878 290.325 27.0706 292.963 26.8146 295.648C26.6704 297.575 24.3467 302.872 21.0695 309.454C15.9012 319.889 8.35313 333.639 3.21692 342.862L61.4941 342.934Z" fill="white"/>
<path opacity="0.4" d="M80.3403 294.083C78.6313 295.299 77.2337 296.902 76.2617 298.763C74.6592 301.524 70.3803 314.487 66.2938 327.498C65.1111 322.31 65.1797 316.914 66.4941 311.758C69.6271 298.915 74.7313 297.045 80.3403 294.083Z" fill="#5856D6"/>
<path opacity="0.4" d="M89.8434 253.372C81.9829 244.349 70.6607 240.424 69.0101 244.317C67.0229 248.973 64.2024 261.438 63.4973 264.641L63.0165 263.838C59.0101 257.377 58.4973 248.218 58.4973 248.218L55.3403 250.129C53.6969 251.117 52.2918 252.458 51.2253 254.053C50.1587 255.649 49.4571 257.461 49.1704 259.359C47.9604 267.386 45.813 280.478 44.9076 278.624C44.0021 276.769 30.3483 296.13 21.0454 309.527C24.3227 302.921 26.6544 297.647 26.7906 295.721C27.0465 293.036 27.6638 290.398 28.6255 287.878C30.5807 283.721 31.9749 280.743 32.2393 280.117C32.2429 280.109 32.2447 280.101 32.2447 280.093C32.2447 280.084 32.2429 280.076 32.2393 280.068C32.2393 279.129 30.6367 262.113 30.5166 256.101C30.3483 244.992 32.2633 227.333 32.2633 211.978C32.2633 202.402 39.6912 194.881 39.6912 194.881C40.0999 197.441 40.5887 199.857 41.1335 202.153C41.2377 202.61 41.3579 203.06 41.4701 203.501C41.6143 204.095 41.7746 204.665 41.9348 205.243C42.0149 205.54 42.1031 205.837 42.1912 206.126C42.8722 208.544 43.6745 210.925 44.5951 213.262C44.7393 213.631 44.8915 213.992 45.0438 214.345C45.196 214.699 45.3403 215.06 45.4925 215.413C45.6447 215.766 45.797 216.103 45.9492 216.432C46.1015 216.762 46.1896 216.962 46.3098 217.235C46.43 217.508 46.6143 217.885 46.7746 218.206L47.1592 219.009L47.7201 220.077L48.2008 220.968C48.5213 221.545 48.8419 222.115 49.1624 222.661L49.6511 223.464C49.9797 223.994 50.3082 224.515 50.6367 225.013C50.9653 225.511 51.2858 225.992 51.6143 226.458C51.7745 226.691 51.9348 226.923 52.1031 227.14C52.4156 227.59 52.7441 228.031 53.0646 228.44L53.7377 229.307L54.4909 230.214L54.9556 230.76C55.805 231.747 56.6143 232.606 57.3595 233.377L58.329 234.308L59.1303 235.022C59.3707 235.247 59.6031 235.44 59.8354 235.632L60.164 235.905C60.3803 236.09 60.5886 236.25 60.7809 236.403C61.1656 236.708 61.5181 236.957 61.8146 237.206L62.3354 237.567L62.7681 237.84L62.8963 237.92C62.8822 237.883 62.8634 237.848 62.8402 237.816C62.8163 237.766 62.7896 237.718 62.7601 237.671C62.5678 237.326 62.1912 236.644 61.6784 235.777L61.2617 235.03C60.805 234.228 60.2922 233.369 59.7473 232.462C58.0165 229.588 58.313 220.052 58.5935 210.91C58.8739 201.768 60.5806 199.673 64.2024 198.356C73.0165 195.146 75.22 206.086 79.2665 218.423C83.313 230.76 83.0325 239.509 84.4668 242.616C85.2681 244.349 86.5502 246.388 87.9684 249.326C88.1287 249.647 88.2889 249.992 88.4412 250.337C88.954 251.212 89.3947 252.248 89.8434 253.372Z" fill="#5856D6"/>
<path opacity="0.4" d="M63.313 265.396C63.313 265.396 63.3771 265.131 63.4813 264.641C66.6704 269.891 63.313 265.396 63.313 265.396Z" fill="#5856D6"/>
<path d="M63.8659 335.196C68.5293 320.074 74.2825 302.07 76.2136 298.763C79.6672 292.887 81.9588 293.995 86.0373 290.254C90.1159 286.514 94.0502 266.367 91.462 258.019C88.8739 249.671 85.9812 245.65 84.547 242.551C83.1127 239.453 83.4011 230.688 79.3466 218.359C75.2921 206.03 73.1047 195.137 64.2825 198.292C60.6768 199.592 58.9781 201.711 58.6736 210.846C58.3691 219.98 58.1047 229.516 59.8274 232.398C61.5502 235.279 62.9845 237.864 62.9845 237.864C62.9845 237.864 44.8915 227.614 39.6912 194.913C39.6912 194.913 32.2633 202.434 32.2633 212.01C32.2633 227.365 30.3483 245.024 30.5406 256.044C30.6608 262.016 32.2633 279.033 32.2633 279.996C32.2633 280.277 27.3435 288.087 26.7666 295.745C26.5342 298.851 20.6207 310.699 14.1704 322.819" stroke="#263238" stroke-linecap="round" stroke-linejoin="round"/>
<path d="M63.0005 237.88C64.1543 240.753 63.8018 245.61 64.2825 252.97C64.7633 260.331 66.446 262.955 66.446 262.955" stroke="#263238" stroke-linecap="round" stroke-linejoin="round"/>
<path d="M64.7232 257.144C63.9509 260.857 63.3758 264.608 63.0005 268.381" stroke="#263238" stroke-linecap="round" stroke-linejoin="round"/>
<path d="M42.6079 246.083C42.6079 246.083 44.8835 264.641 44.8916 270.966" stroke="#263238" stroke-linecap="round" stroke-linejoin="round"/>
<path d="M78.409 295.721C71.9107 299.734 68.4571 301.187 66.4459 308.957" stroke="#263238" stroke-linecap="round" stroke-linejoin="round"/>
<path d="M32.2633 279.996C34.563 274.739 35.5646 262.979 35.5646 262.979" stroke="#263238" stroke-linecap="round" stroke-linejoin="round"/>
<path d="M37.9123 249.776L75.3642 238.073V34.8915L37.9123 23.1885C35.6767 22.4902 33.8418 23.7665 33.8418 26.038V246.926C33.8658 249.198 35.6767 250.474 37.9123 249.776Z" fill="#5856D6" stroke="#263238" stroke-miterlimit="10"/>
<path opacity="0.3" d="M75.3723 34.8996V238.073L42.4396 248.355C41.9148 248.525 41.3572 248.568 40.8126 248.48C40.2681 248.393 39.7519 248.177 39.3064 247.851C38.8608 247.526 38.4986 247.099 38.2494 246.606C38.0001 246.113 37.8709 245.568 37.8723 245.016V27.9564C37.8725 27.4076 38.0016 26.8666 38.2491 26.377C38.4965 25.8873 38.8555 25.4629 39.2969 25.1379C39.7384 24.8129 40.2499 24.5964 40.7903 24.506C41.3306 24.4155 41.8847 24.4537 42.4076 24.6173L75.3723 34.8996Z" fill="black" fill-opacity="0.7"/>
<path d="M227.367 39.1216V233.537C227.365 234.659 226.92 235.733 226.128 236.526C225.337 237.319 224.264 237.765 223.145 237.768H74.9075V34.8995H223.145C223.699 34.8985 224.248 35.0069 224.76 35.2186C225.272 35.4303 225.738 35.7412 226.13 36.1333C226.522 36.5255 226.833 36.9913 227.046 37.504C227.258 38.0168 227.367 38.5665 227.367 39.1216Z" fill="#5856D6"/>
<mask id="mask1_18_4664" style="mask-type:luminance" maskUnits="userSpaceOnUse" x="74" y="34" width="154" height="204">
<path d="M227.367 39.1216V233.537C227.365 234.659 226.92 235.733 226.128 236.526C225.337 237.319 224.264 237.765 223.145 237.768H74.9075V34.8995H223.145C223.699 34.8985 224.248 35.0069 224.76 35.2186C225.272 35.4303 225.738 35.7412 226.13 36.1333C226.522 36.5255 226.833 36.9913 227.046 37.504C227.258 38.0168 227.367 38.5665 227.367 39.1216Z" fill="white"/>
</mask>
<g mask="url(#mask1_18_4664)">
<path opacity="0.3" d="M225.917 115.528V236.732C225.15 237.406 224.165 237.777 223.145 237.776H74.9075V36.3042H217.431C217.895 36.3032 218.354 36.3937 218.783 36.5707C219.212 36.7478 219.601 37.0077 219.93 37.3358C220.258 37.6639 220.518 38.0535 220.696 38.4826C220.874 38.9116 220.965 39.3715 220.965 39.836V111.812L222.383 111.876C223.329 111.909 224.226 112.308 224.885 112.989C225.543 113.67 225.913 114.58 225.917 115.528Z" fill="black" fill-opacity="0.7"/>
</g>
<path d="M227.367 39.1216V233.537C227.365 234.659 226.92 235.733 226.128 236.526C225.337 237.319 224.264 237.765 223.145 237.767H74.9075V34.8995H223.145C223.699 34.8985 224.248 35.0069 224.76 35.2186C225.272 35.4303 225.738 35.7412 226.13 36.1333C226.522 36.5255 226.833 36.9913 227.046 37.504C227.258 38.0168 227.367 38.5665 227.367 39.1216Z" stroke="#263238" stroke-miterlimit="10"/>
<path d="M223.77 169.075V220.695C223.77 221.585 223.443 222.443 222.852 223.108C222.261 223.773 221.447 224.196 220.564 224.299L218.85 224.491L203.882 226.097V163.608L220.564 165.463C221.448 165.567 222.262 165.992 222.853 166.658C223.443 167.324 223.77 168.184 223.77 169.075Z" fill="#999999"/>
<mask id="mask2_18_4664" style="mask-type:luminance" maskUnits="userSpaceOnUse" x="203" y="163" width="21" height="64">
<path d="M223.77 169.075V220.695C223.77 221.585 223.443 222.443 222.852 223.108C222.261 223.773 221.447 224.196 220.564 224.299L218.85 224.491L203.882 226.097V163.608L220.564 165.463C221.448 165.567 222.262 165.992 222.853 166.658C223.443 167.324 223.77 168.184 223.77 169.075Z" fill="white"/>
</mask>
<g mask="url(#mask2_18_4664)">
<path opacity="0.2" d="M223.77 169.075V171.539L218.85 172.438V224.467L203.882 226.073V163.608L220.564 165.463C221.448 165.567 222.262 165.992 222.853 166.658C223.443 167.324 223.77 168.184 223.77 169.075Z" fill="black" fill-opacity="0.7"/>
</g>
<path d="M223.77 169.075V220.695C223.77 221.585 223.443 222.443 222.852 223.108C222.261 223.773 221.447 224.196 220.564 224.299L218.85 224.491L203.882 226.097V163.608L220.564 165.463C221.448 165.567 222.262 165.992 222.853 166.658C223.443 167.324 223.77 168.184 223.77 169.075Z" stroke="#263238" stroke-linecap="round" stroke-linejoin="round"/>
<path d="M223.77 110.881V162.501C223.77 163.391 223.443 164.25 222.852 164.914C222.261 165.579 221.447 166.002 220.564 166.105L217.175 166.474V230.865C217.177 231.814 216.843 232.733 216.233 233.459C215.623 234.184 214.776 234.67 213.842 234.83C213.612 234.875 213.379 234.896 213.145 234.894L74.9877 234.782V38.3912L213.145 38.5035C213.379 38.5037 213.612 38.5279 213.842 38.5758C214.774 38.735 215.62 39.2196 216.231 39.9439C216.841 40.6682 217.175 41.5853 217.175 42.533V106.924L220.564 107.301C221.444 107.401 222.255 107.821 222.846 108.481C223.437 109.14 223.765 109.994 223.77 110.881Z" fill="white"/>
<mask id="mask3_18_4664" style="mask-type:luminance" maskUnits="userSpaceOnUse" x="74" y="38" width="150" height="197">
<path d="M223.77 110.881V162.501C223.77 163.391 223.443 164.25 222.852 164.914C222.261 165.579 221.447 166.002 220.564 166.105L217.175 166.474V230.865C217.177 231.814 216.843 232.733 216.233 233.459C215.623 234.184 214.776 234.67 213.842 234.83C213.612 234.875 213.379 234.896 213.145 234.894L74.9877 234.782V38.3912L213.145 38.5035C213.379 38.5037 213.612 38.5279 213.842 38.5758C214.774 38.735 215.62 39.2196 216.231 39.9439C216.841 40.6682 217.175 41.5853 217.175 42.533V106.924L220.564 107.301C221.444 107.401 222.255 107.821 222.846 108.481C223.437 109.14 223.765 109.994 223.77 110.881Z" fill="white"/>
</mask>
<g mask="url(#mask3_18_4664)">
<path d="M223.77 110.881V162.501C223.77 163.391 223.443 164.25 222.852 164.914C222.261 165.579 221.447 166.002 220.565 166.105L217.175 166.474V230.865C217.177 231.814 216.844 232.733 216.233 233.459C215.623 234.184 214.776 234.67 213.842 234.83V38.5517C214.774 38.7109 215.621 39.1955 216.231 39.9198C216.841 40.6441 217.175 41.5612 217.175 42.5089V106.899L220.565 107.277C221.448 107.377 222.263 107.801 222.854 108.466C223.446 109.13 223.771 109.99 223.77 110.881Z" fill="#BFBFBF"/>
<path d="M135.989 65.2968V104.435H93.4733V54.3082H125.012L132.392 61.6928L135.989 65.2968Z" fill="#5856D6" stroke="#263238" stroke-linecap="round" stroke-linejoin="round"/>
<path opacity="0.5" d="M132.392 61.6928V83.2767H97.0631V57.6634H128.369L132.392 61.6928Z" fill="white"/>
<path d="M132.392 61.6928V83.2767H97.0631V57.6634H128.369L132.392 61.6928Z" stroke="#263238" stroke-linecap="round" stroke-linejoin="round"/>
<path d="M135.989 65.2968H125.012V54.3082L132.392 61.6928L135.989 65.2968Z" fill="#5856D6" stroke="#263238" stroke-linecap="round" stroke-linejoin="round"/>
<path d="M132.392 72.4406V83.2767H97.0631V77.963L106.735 70.4741L115.733 78.0754L127.416 68.0981L132.392 72.4406Z" fill="#5856D6" stroke="#263238" stroke-linecap="round" stroke-linejoin="round"/>
<path d="M109.419 68.0981C111.428 68.0981 113.057 66.4666 113.057 64.454C113.057 62.4414 111.428 60.8098 109.419 60.8098C107.41 60.8098 105.781 62.4414 105.781 64.454C105.781 66.4666 107.41 68.0981 109.419 68.0981Z" fill="#5856D6" stroke="#263238" stroke-linecap="round" stroke-linejoin="round"/>
<path d="M195.052 65.2968V104.435H152.536V54.3082H184.082L191.462 61.6928L195.052 65.2968Z" fill="#5856D6" stroke="#263238" stroke-linecap="round" stroke-linejoin="round"/>
<path opacity="0.5" d="M191.462 61.6928V83.2767H156.125V57.6634H187.432L191.462 61.6928Z" fill="white"/>
<path d="M191.462 61.6928V83.2767H156.125V57.6634H187.432L191.462 61.6928Z" stroke="#263238" stroke-linecap="round" stroke-linejoin="round"/>
<path d="M161.654 76.5422H185.925" stroke="#263238" stroke-linecap="round" stroke-linejoin="round"/>
<path d="M161.19 65.2968C161.19 65.2968 161.19 76.5904 173.794 76.5904C186.398 76.5904 186.398 65.2968 186.398 65.2968" stroke="#263238" stroke-linecap="round" stroke-linejoin="round"/>
<path d="M162.247 65.2968C162.224 65.5629 162.102 65.8107 161.906 65.9912C161.709 66.1717 161.452 66.2718 161.186 66.2718C160.919 66.2718 160.662 66.1717 160.465 65.9912C160.269 65.8107 160.147 65.5629 160.124 65.2968C160.111 65.1493 160.129 65.0008 160.177 64.8607C160.224 64.7206 160.3 64.5919 160.4 64.4828C160.5 64.3738 160.621 64.2867 160.756 64.2271C160.892 64.1675 161.038 64.1367 161.186 64.1367C161.333 64.1367 161.479 64.1675 161.615 64.2271C161.75 64.2867 161.871 64.3738 161.971 64.4828C162.071 64.5919 162.147 64.7206 162.195 64.8607C162.242 65.0008 162.26 65.1493 162.247 65.2968Z" fill="#5856D6" stroke="#263238" stroke-linecap="round" stroke-linejoin="round"/>
<path d="M187.456 65.2968C187.432 65.5629 187.311 65.8107 187.114 65.9912C186.917 66.1717 186.66 66.2718 186.394 66.2718C186.127 66.2718 185.87 66.1717 185.674 65.9912C185.477 65.8107 185.355 65.5629 185.332 65.2968C185.319 65.1493 185.337 65.0008 185.385 64.8607C185.432 64.7206 185.508 64.5919 185.608 64.4828C185.708 64.3738 185.83 64.2867 185.965 64.2271C186.1 64.1675 186.246 64.1367 186.394 64.1367C186.542 64.1367 186.688 64.1675 186.823 64.2271C186.958 64.2867 187.08 64.3738 187.179 64.4828C187.279 64.5919 187.355 64.7206 187.403 64.8607C187.45 65.0008 187.468 65.1493 187.456 65.2968Z" fill="#5856D6" stroke="#263238" stroke-linecap="round" stroke-linejoin="round"/>
<path d="M162.119 75.6593H160.252V77.5295H162.119V75.6593Z" fill="#5856D6" stroke="#263238" stroke-linecap="round" stroke-linejoin="round"/>
<path d="M174.723 75.6593H172.856V77.5295H174.723V75.6593Z" fill="#5856D6" stroke="#263238" stroke-linecap="round" stroke-linejoin="round"/>
<path d="M187.327 75.6593H185.46V77.5295H187.327V75.6593Z" fill="#5856D6" stroke="#263238" stroke-linecap="round" stroke-linejoin="round"/>
<path d="M195.052 65.2968H184.082V54.3082L191.462 61.6928L195.052 65.2968Z" fill="#5856D6" stroke="#263238" stroke-linecap="round" stroke-linejoin="round"/>
<path d="M195.052 124.085V163.223H152.536V113.088H184.082L191.462 120.481L195.052 124.085Z" fill="#5856D6" stroke="#263238" stroke-linecap="round" stroke-linejoin="round"/>
<path opacity="0.5" d="M191.462 120.481V142.065H156.125V116.451H187.432L191.462 120.481Z" fill="white"/>
<path d="M191.462 120.481V142.065H156.125V116.451H187.432L191.462 120.481Z" stroke="#263238" stroke-linecap="round" stroke-linejoin="round"/>
<path d="M195.052 124.085H184.082V113.088L191.462 120.481L195.052 124.085Z" fill="#5856D6" stroke="#263238" stroke-linecap="round" stroke-linejoin="round"/>
<path d="M175.012 137.578C177.344 137.578 179.234 136.334 179.234 134.8C179.234 133.267 177.344 132.023 175.012 132.023C172.68 132.023 170.789 133.267 170.789 134.8C170.789 136.334 172.68 137.578 175.012 137.578Z" fill="#263238"/>
<path d="M174.499 120.039L171.598 134.8H170.797L172.92 124.012L173.473 121.211C173.872 120.875 174.221 120.483 174.507 120.047L174.499 120.039Z" fill="#263238"/>
<path d="M174.499 120.047L173.778 123.619C173.502 123.777 173.212 123.908 172.912 124.012C172.012 124.321 171.056 124.439 170.108 124.358C169.468 124.309 168.827 124.443 168.26 124.744C167.692 125.045 167.222 125.501 166.903 126.059C166.903 125.899 167.776 122.744 170.701 122.423C171.725 122.307 172.691 121.884 173.473 121.211C173.869 120.875 174.215 120.483 174.499 120.047Z" fill="#263238"/>
<path d="M135.989 182.873V222.011H93.4733V171.876H125.012L132.392 179.269L135.989 182.873Z" fill="#5856D6" stroke="#263238" stroke-linecap="round" stroke-linejoin="round"/>
<path opacity="0.5" d="M132.392 179.269V200.852H97.0551V175.239H128.369L132.392 179.269Z" fill="white"/>
<path d="M132.392 179.269V200.852H97.0551V175.239H128.369L132.392 179.269Z" stroke="#263238" stroke-linecap="round" stroke-linejoin="round"/>
<path d="M135.989 182.873H125.012V171.876L132.392 179.269L135.989 182.873Z" fill="#5856D6" stroke="#263238" stroke-linecap="round" stroke-linejoin="round"/>
<path d="M109.964 182.897L103.513 189.366L109.964 195.828" stroke="#263238" stroke-linecap="round" stroke-linejoin="round"/>
<path d="M119.483 195.828L125.941 189.366L119.483 182.897" stroke="#263238" stroke-linecap="round" stroke-linejoin="round"/>
<path d="M116.27 182.881L113.185 195.844" stroke="#263238" stroke-linecap="round" stroke-linejoin="round"/>
<path d="M135.989 124.085V163.223H93.4733V113.088H125.012L132.392 120.481L135.989 124.085Z" fill="#5856D6" stroke="#263238" stroke-linecap="round" stroke-linejoin="round"/>
<path opacity="0.5" d="M132.392 120.481V142.065H97.0551V116.451H128.369L132.392 120.481Z" fill="white"/>
<path d="M132.392 120.481V142.065H97.0551V116.451H128.369L132.392 120.481Z" stroke="#263238" stroke-linecap="round" stroke-linejoin="round"/>
<path d="M135.989 124.085H125.012V113.088L132.392 120.481L135.989 124.085Z" fill="#5856D6" stroke="#263238" stroke-linecap="round" stroke-linejoin="round"/>
<path d="M110.789 129.984C110.789 129.984 109.643 127.986 106.662 129.607C103.914 131.1 104.259 134.68 107.055 134.68C110.324 134.68 111.702 131.413 113.626 127.986C115.645 124.406 117.319 120.762 117.544 120.288C117.544 120.288 115.244 134.535 114.956 136.406C114.667 138.276 117.039 136.759 117.255 135.9" stroke="#263238" stroke-linecap="round" stroke-linejoin="round"/>
<path d="M123.249 129.43C122.226 129.188 121.15 129.343 120.236 129.864C119.323 130.386 118.642 131.235 118.329 132.24C117.816 133.677 118.73 134.648 119.627 134.648C121.927 134.648 122.832 133.291 123.866 129.398C123.866 129.398 122.416 134.648 123.137 134.648C123.454 134.64 123.762 134.545 124.029 134.374C124.296 134.202 124.511 133.961 124.651 133.677" stroke="#263238" stroke-linecap="round" stroke-linejoin="round"/>
<path d="M113.161 129.43H119.082" stroke="#263238" stroke-linecap="round" stroke-linejoin="round"/>
<path opacity="0.1" d="M74.9396 34.8915L143.241 140.724V234.364H75.3723L74.9396 34.8915Z" fill="black" fill-opacity="0.7"/>
</g>
<path d="M223.77 110.881V162.501C223.77 163.391 223.443 164.25 222.852 164.914C222.261 165.579 221.447 166.002 220.564 166.105L217.175 166.474V230.865C217.177 231.814 216.843 232.733 216.233 233.459C215.623 234.184 214.776 234.67 213.842 234.83C213.612 234.875 213.379 234.896 213.145 234.894L74.9877 234.782V38.3912L213.145 38.5035C213.379 38.5037 213.612 38.5279 213.842 38.5758C214.774 38.735 215.62 39.2196 216.231 39.9439C216.841 40.6682 217.175 41.5853 217.175 42.533V106.924L220.564 107.301C221.444 107.401 222.255 107.821 222.846 108.481C223.437 109.14 223.765 109.994 223.77 110.881Z" stroke="#263238" stroke-miterlimit="10"/>
<path d="M74.9876 38.3912V235.046L49.2825 242.832L48.9781 242.913C48.4997 243.051 47.9951 243.07 47.5075 242.97C47.0198 242.87 46.5638 242.652 46.1785 242.336C45.7932 242.021 45.4901 241.616 45.2953 241.157C45.1004 240.698 45.0196 240.199 45.0598 239.702V106.008L43.6415 105.126C43.2248 104.877 42.9124 103.127 42.9124 101.112V44.3229C42.9124 42.2842 43.2248 40.6547 43.6415 40.5504L45.0838 40.1812V33.7598C45.0417 33.2622 45.1212 32.7619 45.3155 32.302C45.5097 31.8422 45.8129 31.4366 46.1987 31.1205C46.5845 30.8043 47.0414 30.5871 47.5299 30.4875C48.0183 30.3879 48.5236 30.4091 49.0021 30.5491L49.3066 30.6293L74.9876 38.3912Z" fill="#BFBFBF"/>
<mask id="mask4_18_4664" style="mask-type:luminance" maskUnits="userSpaceOnUse" x="42" y="30" width="33" height="214">
<path d="M74.9876 38.3912V235.046L49.2825 242.832L48.9781 242.913C48.4997 243.051 47.9951 243.07 47.5075 242.97C47.0198 242.87 46.5638 242.652 46.1785 242.336C45.7932 242.021 45.4901 241.616 45.2953 241.157C45.1004 240.698 45.0196 240.199 45.0598 239.702V106.008L43.6415 105.126C43.2248 104.877 42.9124 103.127 42.9124 101.112V44.3229C42.9124 42.2842 43.2248 40.6547 43.6415 40.5504L45.0838 40.1812V33.7598C45.0417 33.2622 45.1212 32.7619 45.3155 32.302C45.5097 31.8422 45.8129 31.4366 46.1987 31.1205C46.5845 30.8043 47.0414 30.5871 47.5299 30.4875C48.0183 30.3879 48.5236 30.4091 49.0021 30.5491L49.3066 30.6293L74.9876 38.3912Z" fill="white"/>
</mask>
<g mask="url(#mask4_18_4664)">
<path d="M48.9781 30.5411V242.881C48.4997 243.019 47.9951 243.038 47.5075 242.938C47.0198 242.837 46.5638 242.62 46.1785 242.304C45.7932 241.989 45.4901 241.584 45.2953 241.125C45.1004 240.666 45.0196 240.167 45.0598 239.67V106.009L43.6415 105.126C43.2249 104.877 42.9124 103.127 42.9124 101.112V44.323C42.9124 42.2842 43.2249 40.6548 43.6415 40.5504L45.0838 40.1812V33.7598C45.0417 33.2643 45.1202 32.7659 45.3126 32.3075C45.505 31.849 45.8056 31.4442 46.1885 31.1277C46.5715 30.8111 47.0253 30.5924 47.5112 30.4903C47.997 30.3881 48.5004 30.4055 48.9781 30.5411Z" fill="#263238"/>
</g>
<path d="M74.9876 38.3912V235.046L49.2825 242.832L48.9781 242.913C48.4997 243.051 47.9951 243.07 47.5075 242.97C47.0198 242.87 46.5638 242.652 46.1785 242.336C45.7932 242.021 45.4901 241.616 45.2953 241.157C45.1004 240.698 45.0196 240.199 45.0598 239.702V106.008L43.6415 105.126C43.2249 104.877 42.9124 103.127 42.9124 101.112V44.3229C42.9124 42.2842 43.2249 40.6547 43.6415 40.5504L45.0838 40.1812V33.7598C45.0417 33.2622 45.1212 32.7619 45.3155 32.302C45.5097 31.8422 45.8129 31.4366 46.1987 31.1205C46.5845 30.8043 47.0414 30.5871 47.5298 30.4875C48.0183 30.3879 48.5236 30.4091 49.0021 30.5491L49.3066 30.6293L74.9876 38.3912Z" stroke="#263238" stroke-miterlimit="10"/>
<path opacity="0.2" d="M101.43 237.767H75.3643V238.072L64.8034 241.371L63.0005 204.585C63.0005 204.585 68.0806 196.558 74.9396 192.834L75.3643 193.163C78.2328 195.458 95.0437 209.867 101.43 237.767Z" fill="black" fill-opacity="0.7"/>
<path d="M66.446 262.955C66.446 262.955 64.7232 260.323 64.2825 252.97C63.8418 245.618 64.1543 240.753 63.0005 237.88C63.0005 237.88 61.5662 235.287 59.8434 232.414C58.1207 229.54 58.4091 220.004 58.6896 210.862C58.97 201.719 60.6768 199.624 64.2986 198.308C73.1126 195.097 75.3082 206.038 79.3626 218.375C83.4171 230.712 83.1287 239.461 84.563 242.568C85.9972 245.674 88.9059 249.695 91.478 258.035" fill="white"/>
<mask id="mask5_18_4664" style="mask-type:luminance" maskUnits="userSpaceOnUse" x="58" y="197" width="34" height="66">
<path d="M66.446 262.955C66.446 262.955 64.7232 260.323 64.2825 252.97C63.8418 245.618 64.1543 240.753 63.0005 237.88C63.0005 237.88 61.5662 235.287 59.8434 232.414C58.1207 229.54 58.4091 220.004 58.6896 210.862C58.97 201.719 60.6768 199.624 64.2986 198.308C73.1126 195.097 75.3082 206.038 79.3626 218.375C83.4171 230.712 83.1287 239.461 84.563 242.568C85.9972 245.674 88.9059 249.695 91.478 258.035" fill="white"/>
</mask>
<g mask="url(#mask5_18_4664)">
<path opacity="0.4" d="M88.7457 250.755C84.2826 245.754 79.8835 242.399 79.3306 240.858C78.4813 238.45 81.4621 225.976 77.039 221.85C72.6159 217.725 66.9829 222.26 64.0823 221.24C61.1816 220.221 61.5182 215.068 61.5182 205.187C61.5182 200.371 64.7233 198.485 67.9845 197.81C73.8419 198.613 75.9252 207.98 79.3467 218.359C83.4011 230.688 83.1127 239.445 84.547 242.551C85.4845 244.574 87.055 246.998 88.7457 250.755Z" fill="#5856D6"/>
</g>
<path d="M66.446 262.955C66.446 262.955 64.7232 260.323 64.2825 252.97C63.8418 245.618 64.1543 240.753 63.0005 237.88C63.0005 237.88 61.5662 235.287 59.8434 232.414C58.1207 229.54 58.4091 220.004 58.6896 210.862C58.97 201.719 60.6768 199.624 64.2986 198.308C73.1126 195.097 75.3082 206.038 79.3626 218.375C83.4171 230.712 83.1287 239.461 84.563 242.568C85.9972 245.674 88.9059 249.695 91.478 258.035" stroke="#263238" stroke-linecap="round" stroke-linejoin="round"/>
<path opacity="0.2" d="M176.983 173.104L167.736 213.149L194.066 218.648C194.066 218.648 193.097 230.279 194.25 230.543C195.404 230.808 203.008 232.309 203.008 232.309C203.008 232.309 201.334 255.772 201.334 264.079C201.334 272.387 210.685 279.089 217.119 291.932C223.553 304.775 237.151 308.523 252.375 335.196L266.045 276.786L233.385 201.174L199.106 175.745L176.983 173.104Z" fill="black" fill-opacity="0.7"/>
<path d="M204.803 225.864C204.803 225.864 206.646 233.658 206.35 235.769C206.053 237.88 208.257 237.88 208.265 237.88C208.986 245.77 209.242 253.436 208.649 256.582C207.495 262.626 213.241 269.016 218.265 280.213C223.289 291.41 226.734 293.465 232.191 298.763C237.648 304.06 236.878 309.198 240.284 315.394C242.247 318.998 245.58 335.244 248.04 348.304H306.125C297.616 331.913 284.571 306.798 283.04 303.86C280.741 299.461 281.894 297.189 278.16 288.97C278.16 288.97 273.962 228.657 270.46 224.491C266.959 220.325 255.564 215.148 252.351 211.978C249.138 208.807 235.62 190.972 230.893 189.824C226.165 188.676 215.108 197.321 215.108 197.321C215.108 197.321 211.101 191.469 205.42 194.11C201.63 195.876 201.79 202.137 203.016 208.767C202.96 208.855 201.013 211.978 200.02 213.695C199.026 215.413 197.007 225.206 197.007 226.217C197.015 227.084 201.518 229.821 204.803 225.864Z" fill="white"/>
<path opacity="0.4" d="M234.499 244.012C234.499 244.012 238.505 249.671 236.221 249.792C233.938 249.912 227.407 246.814 223.802 237.711C222.96 235.592 221.975 233.377 220.957 231.21C220.438 230.106 219.594 229.189 218.539 228.581C217.483 227.973 216.267 227.703 215.054 227.809C213.841 227.915 212.69 228.391 211.755 229.173C210.821 229.954 210.148 231.004 209.827 232.181L208.225 237.88C208.225 237.88 206.021 237.88 206.31 235.769C206.574 233.899 205.156 227.566 204.827 226.137L205.428 224.933L197.528 222.934C197.824 221.473 198.201 219.723 198.593 218.118C198.649 217.893 198.697 217.677 198.762 217.468V217.355C198.81 217.171 198.85 217.002 198.906 216.834C199.151 215.747 199.505 214.687 199.963 213.671C200.949 211.97 202.904 208.855 202.96 208.735C201.726 202.113 201.566 195.844 205.364 194.078C211.077 191.413 215.052 197.289 215.052 197.289L215.492 196.943C215.571 196.899 215.646 196.848 215.717 196.791C216.646 196.093 218.481 194.776 220.621 193.452C220.933 193.259 221.254 193.067 221.582 192.882C223.027 192.011 224.535 191.249 226.093 190.602C226.622 190.402 227.143 190.217 227.648 190.073C227.808 190.032 227.976 189.976 228.145 189.944C229.377 195.165 229.753 200.552 229.258 205.893L234.443 213.816C235.129 216.687 236.259 219.433 237.792 221.955C239.348 224.522 240.621 227.251 241.59 230.094C241.59 230.094 242.544 229.291 243.882 230.672C243.882 230.672 239.947 235.544 238.754 238.875C237.917 240.998 236.427 242.797 234.499 244.012Z" fill="#5856D6"/>
<path opacity="0.4" d="M273 266.856C272.287 247.408 269.218 236.869 269.218 236.869C269.218 236.869 270.02 252.601 267.88 256.935C267.88 256.935 266.149 242.881 267.079 233.746C268.008 224.612 247.327 212.074 246.478 205.211C249.09 208.317 251.286 210.95 252.327 212.002C255.532 215.172 266.935 220.35 270.428 224.515C273.922 228.681 278.008 287.124 278.137 288.954C275.965 284.812 273.393 277.725 273 266.856Z" fill="#5856D6"/>
<path opacity="0.4" d="M244.29 329.714C242.8 322.931 241.35 317.329 240.284 315.394C237.159 309.695 237.56 304.879 233.385 300.063C234.015 300.586 234.691 301.051 235.404 301.452C238.994 303.274 243 310.915 243.938 316.277C244.427 319.022 244.419 324.753 244.29 329.714Z" fill="#5856D6"/>
<path d="M203.024 208.767C203.024 208.767 201.029 211.978 200.028 213.703C199.026 215.429 197.015 225.214 197.015 226.225C197.015 227.236 203.201 230.824 206.35 223.199" stroke="#263238" stroke-linecap="round" stroke-linejoin="round"/>
<path d="M245.725 337.355C243.321 325.998 240.917 314.728 235.757 303.908C232.856 297.358 226.318 293.722 221.967 287.903C216.879 279.876 213.954 271.175 209.619 263.172C208.169 252.264 208.89 241.347 207.439 229.709C205.989 221.682 203.81 213.711 202.359 205.709C202.359 201.342 200.909 196.976 205.26 194.07C208.89 192.617 212.528 194.792 215.108 197.281M215.108 197.281C214.795 196.839 218.93 194.343 215.108 197.281ZM215.108 197.281C219.058 194.07 223.417 189.679 228.497 190.41C240.116 191.132 244.475 204.954 252.463 212.226C254.643 214.41 257.544 215.14 259.723 217.323C264.082 220.229 269.891 221.682 271.342 226.779C276.422 247.873 275.701 267.515 278.601 288.585C279.33 292.221 280.052 296.612 281.51 300.224C285.14 308.25 289.13 316.044 293.209 323.782" stroke="#263238" stroke-linecap="round" stroke-linejoin="round"/>
<path d="M215.108 197.321C218.553 200.917 222.864 211.705 225.02 219.338C227.175 226.972 226.622 236.459 226.622 236.459C226.622 236.459 229.827 241.348 232.656 246.244C235.484 251.14 238.834 250.129 238.834 250.129" stroke="#263238" stroke-linecap="round" stroke-linejoin="round"/>
<path d="M229.306 240.737C230.371 240.951 231.474 240.864 232.492 240.487C233.511 240.11 234.405 239.458 235.076 238.602C237.664 235.576 235.933 232.125 244.843 230.688" stroke="#263238" stroke-linecap="round" stroke-linejoin="round"/>
<path d="M237.84 233.714C237.422 230.472 236.386 227.341 234.787 224.491C232.199 220.036 232.632 216.729 232.632 216.729C232.632 216.729 226.173 211.215 225.596 208.767" stroke="#263238" stroke-linecap="round" stroke-linejoin="round"/>
<path d="M226.975 198.308C226.975 198.308 226.63 202.281 226.326 204.497C225.757 208.767 224.851 209.891 222.215 210.862" stroke="#263238" stroke-linecap="round" stroke-linejoin="round"/>
<path d="M225.02 219.322C226.595 220.467 228.413 221.23 230.332 221.554C230.332 221.554 229.763 226.659 230.909 227.975C232.055 229.291 234.21 230.279 234.499 232.438" stroke="#263238" stroke-linecap="round" stroke-linejoin="round"/>
<path d="M226.398 227.253C227.405 227.87 228.595 228.117 229.763 227.951" stroke="#263238" stroke-linecap="round" stroke-linejoin="round"/>
<path d="M232.776 236.869C232.776 236.869 230.276 239.501 228.08 238.763" stroke="#263238" stroke-linecap="round" stroke-linejoin="round"/>
<path d="M204.803 225.864C204.803 225.864 206.646 233.658 206.35 235.769C206.053 237.88 208.265 237.88 208.265 237.88" stroke="#263238" stroke-linecap="round" stroke-linejoin="round"/>
<path d="M232.632 216.729C232.632 216.729 234.234 213.567 235.596 212.844" stroke="#263238" stroke-linecap="round" stroke-linejoin="round"/>
<path d="M230.428 242.552C232.965 242.985 235.297 244.223 237.079 246.083" stroke="#263238" stroke-linecap="round" stroke-linejoin="round"/>
<path d="M252.359 211.978C258.056 218.889 263.225 222.774 265.813 225.864C268.401 228.954 265.733 235.769 267.111 248.242" stroke="#263238" stroke-linecap="round" stroke-linejoin="round"/>
<path d="M257.872 227.253C257.872 227.253 256.895 232.703 259.627 236.885" stroke="#263238" stroke-linecap="round" stroke-linejoin="round"/>
<path d="M232.199 298.763C239.955 304.927 240.212 306.653 241.967 310.394" stroke="#263238" stroke-linecap="round" stroke-linejoin="round"/>
<path d="M278.168 288.97C273.858 282.196 272.992 270.974 272.992 270.974" stroke="#263238" stroke-linecap="round" stroke-linejoin="round"/>
<path d="M224.066 181.155L215.717 219.386L174.186 210.284L184.875 161.313L215.693 168.063L221.326 176.861L224.066 181.155Z" fill="#5856D6" stroke="#263238" stroke-linecap="round" stroke-linejoin="round"/>
<path opacity="0.5" d="M221.326 176.861L216.718 197.947L182.199 190.386L187.664 165.366L218.257 172.069L221.326 176.861Z" fill="white"/>
<path d="M221.326 176.861L216.718 197.947L182.199 190.386L187.664 165.366L218.257 172.069L221.326 176.861Z" stroke="#263238" stroke-linecap="round" stroke-linejoin="round"/>
<path d="M195.364 171.33L215.54 175.745" stroke="#263238" stroke-linecap="round" stroke-linejoin="round"/>
<path d="M192.039 172.952L215.052 177.992" stroke="#263238" stroke-linecap="round" stroke-linejoin="round"/>
<path d="M191.55 175.199L214.563 180.248" stroke="#263238" stroke-linecap="round" stroke-linejoin="round"/>
<path d="M191.053 177.455L214.066 182.495" stroke="#263238" stroke-linecap="round" stroke-linejoin="round"/>
<path d="M190.564 179.702L213.577 184.743" stroke="#263238" stroke-linecap="round" stroke-linejoin="round"/>
<path d="M190.076 181.95L213.088 186.99" stroke="#263238" stroke-linecap="round" stroke-linejoin="round"/>
<path d="M189.587 184.197L212.592 189.238" stroke="#263238" stroke-linecap="round" stroke-linejoin="round"/>
<path d="M189.09 186.445L209.266 190.867" stroke="#263238" stroke-linecap="round" stroke-linejoin="round"/>
<path d="M224.066 181.155L213.353 178.803L215.693 168.063L221.326 176.861L224.066 181.155Z" fill="#5856D6" stroke="#263238" stroke-linecap="round" stroke-linejoin="round"/>
<path d="M218.273 280.213C213.241 269.016 207.496 262.626 208.657 256.582C209.819 250.538 207.792 227.806 205.452 218.857C203.113 209.907 199.675 196.783 205.452 194.086C211.23 191.389 215.14 197.297 215.14 197.297C218.585 200.893 222.896 211.681 225.052 219.314C227.207 226.948 226.654 236.435 226.654 236.435C226.654 236.435 229.859 241.323 232.688 246.22C235.516 251.116 238.866 250.105 238.866 250.105" fill="white"/>
<mask id="mask6_18_4664" style="mask-type:luminance" maskUnits="userSpaceOnUse" x="202" y="193" width="37" height="88">
<path d="M218.273 280.213C213.241 269.016 207.496 262.626 208.657 256.582C209.819 250.538 207.792 227.806 205.452 218.857C203.113 209.907 199.675 196.783 205.452 194.086C211.23 191.389 215.14 197.297 215.14 197.297C218.585 200.893 222.896 211.681 225.052 219.314C227.207 226.948 226.654 236.435 226.654 236.435C226.654 236.435 229.859 241.323 232.688 246.22C235.516 251.116 238.866 250.105 238.866 250.105" fill="white"/>
</mask>
<g mask="url(#mask6_18_4664)">
<path opacity="0.4" d="M217.8 235.769C217.8 235.769 208.265 236.82 208.986 249.222C208.778 239.863 207.215 225.535 205.452 218.889C203.802 212.652 201.638 204.352 202.455 198.998C205.052 197.192 208.113 196.061 211.093 197.305C218.545 200.403 217.207 208.213 217.207 208.213C217.207 208.213 208.529 209.69 208.297 214.787C208.064 219.884 214.258 219.876 217.8 235.769Z" fill="#5856D6"/>
</g>
<path d="M218.273 280.213C213.241 269.016 207.496 262.626 208.657 256.582C209.819 250.538 207.792 227.806 205.452 218.857C203.113 209.907 199.675 196.783 205.452 194.086C211.23 191.389 215.14 197.297 215.14 197.297C218.585 200.893 222.896 211.681 225.052 219.314C227.207 226.948 226.654 236.435 226.654 236.435C226.654 236.435 229.859 241.323 232.688 246.22C235.516 251.116 238.866 250.105 238.866 250.105" stroke="#263238" stroke-linecap="round" stroke-linejoin="round"/>
</svg>
